<?xml version="1.0" encoding="utf-8"?>
<!-- Generator: Adobe Illustrator 16.0.0, SVG Export Plug-In . SVG Version: 6.00 Build 0)  -->
<!DOCTYPE svg PUBLIC "-//W3C//DTD SVG 1.1//EN" "http://www.w3.org/Graphics/SVG/1.1/DTD/svg11.dtd">
<svg version="1.1" id="Layer_1" xmlns="http://www.w3.org/2000/svg" xmlns:xlink="http://www.w3.org/1999/xlink" x="0px" y="0px"
	 width="305px" height="220px" viewBox="0 0 305 220" enable-background="new 0 0 305 220" xml:space="preserve">
<g>
	<g>
		<g>
			<path fill="#3C2415" d="M296.672,185.229c1.09-8.101,5.937-20.132,4.573-28.83c-1.165-7.436-10.418-13.768-12.271-22.233
				c-2.229-10.192,1.114-18.873,5.506-26.816c0.93,11.495-0.201,23.851,2.92,34.227c0.078-2.713,0.812-3.574,1.688-5.57
				c-0.017-14.328-3.035-27.962-0.755-43.186c2.532-16.941-0.933-32.917-18.471-37.827c-15.808-4.428-28.215,2.121-42.82,3.481
				c-7.868,0.733-12.899,2.935-21.146,2.916c-8.009-0.018-15.727-0.355-23.513-0.729c-15.862-0.757-28.738-3.816-44.331-5.834
				c-6.122-0.793-12.571-4.131-18.672-4.097c-2.314,0.014-3.637,0.68-6.187-0.205c-1.876-0.651-3.688-1.602-5.39-2.62
				c-1.661-0.993-2.946-2.192-4.156-3.637c-4.457-5.318-11.501-5.129-18.071-5.482c-9.311-0.501-21.769,3.695-22.524,14.41
				c-0.208,2.978,1.022,13.342,4.047,14.318c-0.007,0.396-0.021,0.794-0.041,1.192l-0.496-0.939
				c0.174,0.473,0.318,0.935,0.465,1.396c-0.167,2.576-0.543,5.184-0.116,7.727c0.42,2.492,0.605,6.669,1.89,9.042
				c-0.003,0.688-0.007,1.374,0.003,2.058c-2.875,5.808,0.338,10.131,5.154,12.312c1.032-0.445,2.222-0.704,3.582-0.704
				c1.23,0,2.321,0.219,3.285,0.592c1.159,0.009,2.194,0.207,3.114,0.547l-0.222-0.419c1.682,0,3.965,2.7,5.083,4.3
				c0.263,0.303,0.499,0.627,0.714,0.964c7.109,8.695,2.851,22.552,9.693,29.8c3.052,3.231,7.157,7.321,11.119,9.377
				c12.917,6.704,10.589,3.71,9.519,17.803c-1.292,17.024-4.724,31.127-19.653,41.395c3.018,1.711,17.397,3.862,20.925,1.451
				c3.004-2.055,1.545-5.074,2.868-8.012c1.545-3.427,4.929-5.223,5.335-9.191c-1.398,5.712,3.992,9.782,0.058,15.319
				c1.829,2.627,10.107,3.201,13.47,1.866c5.294-2.097,4.331-2.719,3.654-7.718c-0.656-4.781-2.485-9.441-3.367-14.194
				c-1.312-7.087,0.796-10.611,1.535-17.618c0.523-4.954-1.904-10.635-1.876-14.395c0.048-6.272,3.292-6.205,10.411-6.948
				c5.52-0.576,11.419,0,16.974,0c9.525,0,23.088-2.403,31.947,0.816c0.055,0.939,0.355,1.916,0.414,2.777
				c9.222-0.286,17.992-11.261,26.127-14.531c5.807-2.337,9.389-3.91,13.504,1.789c1.863,2.578,5.325,11.402,6.054,14.383
				c2.522,10.332-1.604,24.491-5.486,33.342c-2.765,6.307-17.821,16.598-15.603,24.039c4.498-0.435,6.624,0.477,9.949-0.841
				c3.292-1.306,2.561-4.953,7.916-4.44c2.748-10.498,7.479-19.232,13.054-29.485c2.283-4.204,5.396-8.162,6.029-12.429
				c0.427-2.873-1.251-11.165-1.388-15.196c3.564,4.544,7.034,10.958,10.138,16.156c1.432,2.399,2.081,5.4,3.608,7.843
				c1.132,1.813,4.047,3.999,4.594,6.347c1.111,4.773-2.338,14.886-2.97,20.277c-0.823,7.041-6.606,14.312-6.47,20.337
				c5.338,0.923,10.738-0.427,15.168-1.998c0.325-0.684,0.065-1.785,0.158-2.544C304.39,209.426,296.05,189.861,296.672,185.229z"/>
			<path fill="#3C2415" d="M75.581,46.806c-3.49,0.599-5.337,2.769-9.297,3.062c-4.057,0.303-8.533-0.576-12.096,1.39
				c-0.263,7.13,2.039,9.969,9.07,11.275c6.314,1.175,7.548-4.313,12.988-5.688c-0.513,0.014-1.027,0.021-1.54,0.022"/>
		</g>
		<path fill="#3C2415" d="M111.164,44.83c-0.075,5.361,6.836,4.402,10.767,4.65c4.761,0.303,8.774,1.073,11.915,4.824
			c-1.87,5.069-10.589,9.898-15.661,10.32c-4.655,0.39-5.65-1.614-8.593-4.357c-2.898-2.705-5.257-2.734-9.324-2.999"/>
	</g>
</g>
</svg>
