<?xml version="1.0" encoding="utf-8"?>
<!-- Generator: Adobe Illustrator 16.0.0, SVG Export Plug-In . SVG Version: 6.00 Build 0)  -->
<!DOCTYPE svg PUBLIC "-//W3C//DTD SVG 1.1//EN" "http://www.w3.org/Graphics/SVG/1.1/DTD/svg11.dtd">
<svg version="1.1" id="Layer_1" xmlns="http://www.w3.org/2000/svg" xmlns:xlink="http://www.w3.org/1999/xlink" x="0px" y="0px"
	 width="305px" height="220px" viewBox="0 0 305 220" enable-background="new 0 0 305 220" xml:space="preserve">
<g>
	<g>
		<path d="M95.647,71.745c-0.327-3.956,4.002-5.984,5.807-9.163c1.161,2.434,2.461,7.728-2.252,6.376
			c-0.068-0.49-0.193-1.119-0.226-1.543c-1.357,0.164-2.379,1.155-2.892,2.58"/>
		<path d="M81.965,71.745c0.328-3.956-4.001-5.984-5.806-9.163c-1.161,2.434-2.461,7.728,2.252,6.376
			c0.068-0.49,0.193-1.119,0.226-1.543c1.355,0.164,2.379,1.155,2.89,2.58"/>
		<path d="M87.931,101.376c-3.491,0.592-11.443-2.003-8.921-6.92c0.947,0.273,2.058,0.704,3.054,0.73
			c0.405-2.304-5.594-4.621-1.538-6.32c1.142-0.479,4.175,0.836,5.641,0.889c2.449,0.089,4.951-0.687,7.383-0.465
			c1.203,3.951-5.935,4.678-2.133,6.899c0.361-0.634,1.032-1.091,1.388-1.743c2.401,0.337,2.114,3.327,0.727,5.091
			C92.55,100.783,89.363,101.134,87.931,101.376z"/>
	</g>
	<g>
		<path d="M100.99,58.092c0.42-0.648,1.209-1.096,2.018-1.167c0.808-0.081,1.612,0.043,2.362,0.263
			c1.505,0.449,2.877,1.167,4.173,1.963c1.288,0.813,2.499,1.73,3.813,2.468c0.657,0.366,1.343,0.684,2.049,0.904
			c0.349,0.114,0.717,0.193,1.063,0.202c0.381,0.01,0.758,0.009,1.123-0.005c2.969-0.173,5.886-0.975,8.408-2.45
			c2.535-1.422,4.68-3.623,5.604-6.529l0.098,0.021c-0.149,1.525-0.763,3.021-1.685,4.291c-0.933,1.265-2.133,2.329-3.477,3.137
			c-1.348,0.809-2.83,1.354-4.342,1.706c-1.512,0.358-3.075,0.484-4.614,0.371c-0.391-0.025-0.77-0.064-1.144-0.113
			c-0.408-0.062-0.779-0.171-1.146-0.298c-0.729-0.263-1.406-0.615-2.089-0.95l-4.074-2.031c-1.337-0.688-2.636-1.432-4.004-1.951
			c-1.324-0.513-2.908-0.832-4.063,0.237L100.99,58.092z"/>
	</g>
</g>
</svg>
