<?xml version="1.0" encoding="utf-8"?>
<!-- Generator: Adobe Illustrator 16.0.0, SVG Export Plug-In . SVG Version: 6.00 Build 0)  -->
<!DOCTYPE svg PUBLIC "-//W3C//DTD SVG 1.1//EN" "http://www.w3.org/Graphics/SVG/1.1/DTD/svg11.dtd">
<svg version="1.1" id="Layer_1" xmlns="http://www.w3.org/2000/svg" xmlns:xlink="http://www.w3.org/1999/xlink" x="0px" y="0px"
	 width="305px" height="220px" viewBox="0 0 305 220" enable-background="new 0 0 305 220" xml:space="preserve">
<g>
	<g>
		
			<linearGradient id="SVGID_1_" gradientUnits="userSpaceOnUse" x1="245.7041" y1="151.8418" x2="315.854" y2="151.8418" gradientTransform="matrix(-1 0 0 -1 339.2266 226.0664)">
			<stop  offset="0" style="stop-color:#CBCC8E"/>
			<stop  offset="0.2584" style="stop-color:#C7C78C"/>
			<stop  offset="0.4079" style="stop-color:#BDBC85"/>
			<stop  offset="0.5298" style="stop-color:#AEAC7B"/>
			<stop  offset="0.6367" style="stop-color:#9B966E"/>
			<stop  offset="0.7338" style="stop-color:#837C5D"/>
			<stop  offset="0.8239" style="stop-color:#685F4A"/>
			<stop  offset="0.9086" style="stop-color:#4C4235"/>
			<stop  offset="0.9868" style="stop-color:#30251E"/>
			<stop  offset="1" style="stop-color:#2B1F19"/>
		</linearGradient>
		<path fill="url(#SVGID_1_)" d="M75.851,51.317c-0.248,1.871,0.027,3.819,0.832,5.504c-3.545,0.337-7.112,0.617-10.87,0.617
			c-7.841,0-17.839,2.064-23.431,7.504c-5.104,4.967-6.9,13.009-8.792,19.53c-1.677,5.771-2.724,12.421-8.101,16.415
			c4.124-4.975,3.859-22.179,4.734-26.089c1.379-6.151,2.793-13.753,8.336-17.682c6.691-4.747,15.083-6.786,23.221-8.037
			c3.51-0.54,11.171-2.082,14.808-1.301C76.131,48.891,75.892,50.101,75.851,51.317z"/>
	</g>
	<g>
		<g>
			
				<linearGradient id="SVGID_2_" gradientUnits="userSpaceOnUse" x1="326.5312" y1="151.8418" x2="396.6837" y2="151.8418" gradientTransform="matrix(1 0 0 -1 -243.0664 226.0664)">
				<stop  offset="0" style="stop-color:#CBCC8E"/>
				<stop  offset="0.2584" style="stop-color:#C7C78C"/>
				<stop  offset="0.4079" style="stop-color:#BDBC85"/>
				<stop  offset="0.5298" style="stop-color:#AEAC7B"/>
				<stop  offset="0.6367" style="stop-color:#9B966E"/>
				<stop  offset="0.7338" style="stop-color:#837C5D"/>
				<stop  offset="0.8239" style="stop-color:#685F4A"/>
				<stop  offset="0.9086" style="stop-color:#4C4235"/>
				<stop  offset="0.9868" style="stop-color:#30251E"/>
				<stop  offset="1" style="stop-color:#2B1F19"/>
			</linearGradient>
			<path fill="url(#SVGID_2_)" d="M99.78,56.773c3.719,0.359,7.455,0.665,11.397,0.665c7.841,0,17.839,2.064,23.431,7.504
				c5.105,4.967,6.9,13.009,8.792,19.53c1.677,5.771,2.724,12.421,8.101,16.415c-4.124-4.975-3.86-22.179-4.735-26.089
				c-1.378-6.151-2.792-13.753-8.335-17.682c-6.69-4.747-15.083-6.786-23.221-8.037c-3.511-0.54-11.17-2.082-14.807-1.301
				C101.576,50.639,101.367,54.144,99.78,56.773z"/>
		</g>
	</g>
</g>
</svg>
