<?xml version="1.0" encoding="utf-8"?>
<!-- Generator: Adobe Illustrator 16.0.0, SVG Export Plug-In . SVG Version: 6.00 Build 0)  -->
<!DOCTYPE svg PUBLIC "-//W3C//DTD SVG 1.1//EN" "http://www.w3.org/Graphics/SVG/1.1/DTD/svg11.dtd">
<svg version="1.1" id="Layer_1" xmlns="http://www.w3.org/2000/svg" xmlns:xlink="http://www.w3.org/1999/xlink" x="0px" y="0px"
	 width="305px" height="220px" viewBox="0 0 305 220" enable-background="new 0 0 305 220" xml:space="preserve">
<g>
	<linearGradient id="SVGID_1_" gradientUnits="userSpaceOnUse" x1="94.2505" y1="46.0625" x2="174.1805" y2="46.0625">
		<stop  offset="0" style="stop-color:#CBCC8E"/>
		<stop  offset="0.2584" style="stop-color:#C7C78C"/>
		<stop  offset="0.4079" style="stop-color:#BDBC85"/>
		<stop  offset="0.5298" style="stop-color:#AEAC7B"/>
		<stop  offset="0.6367" style="stop-color:#9B966E"/>
		<stop  offset="0.7338" style="stop-color:#837C5D"/>
		<stop  offset="0.8239" style="stop-color:#685F4A"/>
		<stop  offset="0.9086" style="stop-color:#4C4235"/>
		<stop  offset="0.9868" style="stop-color:#30251E"/>
		<stop  offset="1" style="stop-color:#2B1F19"/>
	</linearGradient>
	<path fill="url(#SVGID_1_)" d="M155.216,40.212c-7.208,0.431-14.598-1.196-21.532,0.011c-6.084,1.06-9.034,5.045-14.64,6.67
		c-3.603,1.048-17.233,1.171-19.147-0.531l-0.509,1.142c2.529,2.379,3.223,6.292,2.071,9.511c5.77-0.681,12.823-0.348,17.305-0.884
		c7.305-0.875,11.344-4.482,16.83-8.07c6.645-4.337,12.756-2.242,20.887-3.858c6.382-1.269,12.705-5.708,17.699-9.089
		C167.659,36.244,162.757,39.763,155.216,40.212z"/>
	
		<linearGradient id="SVGID_2_" gradientUnits="userSpaceOnUse" x1="255.9385" y1="46.0449" x2="335.8663" y2="46.0449" gradientTransform="matrix(-1 0 0 1 338.7402 0)">
		<stop  offset="0" style="stop-color:#CBCC8E"/>
		<stop  offset="0.2584" style="stop-color:#C7C78C"/>
		<stop  offset="0.4079" style="stop-color:#BDBC85"/>
		<stop  offset="0.5298" style="stop-color:#AEAC7B"/>
		<stop  offset="0.6367" style="stop-color:#9B966E"/>
		<stop  offset="0.7338" style="stop-color:#837C5D"/>
		<stop  offset="0.8239" style="stop-color:#685F4A"/>
		<stop  offset="0.9086" style="stop-color:#4C4235"/>
		<stop  offset="0.9868" style="stop-color:#30251E"/>
		<stop  offset="1" style="stop-color:#2B1F19"/>
	</linearGradient>
	<path fill="url(#SVGID_2_)" d="M77.393,46.895l-0.237-0.533c-1.914,1.702-15.542,1.579-19.146,0.531
		c-5.604-1.625-8.556-5.61-14.638-6.67c-6.935-1.207-14.325,0.42-21.533-0.011c-7.54-0.449-12.442-3.968-18.964-5.1
		c4.994,3.381,11.318,7.82,17.699,9.089c8.131,1.616,14.243-0.479,20.887,3.858c5.486,3.588,9.526,7.195,16.829,8.07
		c4.4,0.526,11.274,0.217,16.981,0.848C73.881,53.607,74.586,49.342,77.393,46.895z"/>
</g>
</svg>
