<?xml version="1.0" encoding="utf-8"?>
<!-- Generator: Adobe Illustrator 16.0.0, SVG Export Plug-In . SVG Version: 6.00 Build 0)  -->
<!DOCTYPE svg PUBLIC "-//W3C//DTD SVG 1.1//EN" "http://www.w3.org/Graphics/SVG/1.1/DTD/svg11.dtd">
<svg version="1.1" id="Layer_1" xmlns="http://www.w3.org/2000/svg" xmlns:xlink="http://www.w3.org/1999/xlink" x="0px" y="0px"
	 width="305px" height="220px" viewBox="0 0 305 220" enable-background="new 0 0 305 220" xml:space="preserve">
<g>
	<linearGradient id="SVGID_1_" gradientUnits="userSpaceOnUse" x1="97.855" y1="50.9727" x2="131.871" y2="50.9727">
		<stop  offset="0" style="stop-color:#CBCC8E"/>
		<stop  offset="0.2634" style="stop-color:#C8C78B"/>
		<stop  offset="0.4158" style="stop-color:#BEBC84"/>
		<stop  offset="0.54" style="stop-color:#B1AA7A"/>
		<stop  offset="0.6489" style="stop-color:#9F946B"/>
		<stop  offset="0.7479" style="stop-color:#88785A"/>
		<stop  offset="0.8397" style="stop-color:#6F5B45"/>
		<stop  offset="0.9241" style="stop-color:#553D30"/>
		<stop  offset="1" style="stop-color:#3B1F1A"/>
	</linearGradient>
	<path fill="url(#SVGID_1_)" d="M114.565,47.836c-4.659,0.69-10.589,1.492-15.89,0.674c1.583,2.001,2.184,4.722,1.798,7.271
		c5.014-0.291,12.445-2.516,16.755-3.801c5.041-1.508,10.615-2.941,14.643-5.653C126.176,45.705,120.127,47.013,114.565,47.836z"/>
	
		<linearGradient id="SVGID_2_" gradientUnits="userSpaceOnUse" x1="202.6943" y1="50.9785" x2="236.7108" y2="50.9785" gradientTransform="matrix(-1 0 0 1 280.4238 0)">
		<stop  offset="0" style="stop-color:#CBCC8E"/>
		<stop  offset="0.2634" style="stop-color:#C8C78B"/>
		<stop  offset="0.4158" style="stop-color:#BEBC84"/>
		<stop  offset="0.54" style="stop-color:#B1AA7A"/>
		<stop  offset="0.6489" style="stop-color:#9F946B"/>
		<stop  offset="0.7479" style="stop-color:#88785A"/>
		<stop  offset="0.8397" style="stop-color:#6F5B45"/>
		<stop  offset="0.9241" style="stop-color:#553D30"/>
		<stop  offset="1" style="stop-color:#3B1F1A"/>
	</linearGradient>
	<path fill="url(#SVGID_2_)" d="M77.539,49.051c0.014-0.212,0.032-0.424,0.034-0.639c-5.465,0.998-11.703,0.144-16.553-0.576
		c-5.561-0.823-11.613-2.131-17.307-1.509c4.027,2.712,9.603,4.146,14.645,5.653c4.385,1.309,12.007,3.589,17.021,3.811
		C75.221,53.357,75.939,50.859,77.539,49.051z"/>
</g>
</svg>
