<?xml version="1.0" encoding="utf-8"?>
<!-- Generator: Adobe Illustrator 16.0.0, SVG Export Plug-In . SVG Version: 6.00 Build 0)  -->
<!DOCTYPE svg PUBLIC "-//W3C//DTD SVG 1.1//EN" "http://www.w3.org/Graphics/SVG/1.1/DTD/svg11.dtd">
<svg version="1.1" id="Layer_1" xmlns="http://www.w3.org/2000/svg" xmlns:xlink="http://www.w3.org/1999/xlink" x="0px" y="0px"
	 width="175px" height="125px" viewBox="0 0 175 125" enable-background="new 0 0 175 125" xml:space="preserve">
<g>
	<path fill="#FFF5DC" d="M43.97,51.373c0.917,2.225,3.361-0.028,2.437-1.928c0.976-0.313,3.91,0.274,3.498-1.546
		c-0.414,0.036-0.915-0.124-1.318-0.08c-0.082-0.105-0.062-0.175,0.061-0.209c-0.877-0.304-1.162-0.557-2.016-0.134
		c-0.292-0.282-0.35-0.47-0.686-0.657c-1.03,0.774-0.369,1.938-0.772,2.95C44.872,50.524,43.282,49.705,43.97,51.373z"/>
	<path fill="#FFF5DC" d="M53.5,43.875c1.942,0.912,3.987-0.883,4.512-2.452c0.173-0.517,0.222-2.775,0-3.255
		c-0.746-1.613-0.793-0.732-2.282-1.282c-2.343-0.864-4.061-0.377-3.979,2.69c0.051,1.891,2.59,3.524,1.978,4.901
		c-0.001-0.116,0.031-0.227,0.095-0.329c-0.145,1.1-1.049,1.94-1.958,2.452c-0.886-0.639-1.648-0.675-2.16-1.444
		c-0.402,0.223-0.734,0.077-1.208,0.514c-1.356-1.026-4.549-0.956-4.056,1.446c-0.733-1.324-0.715-2.689-0.417-4.234
		c0.167-0.871,0.998-2.447,0.791-3.379c-0.284-1.279-1.792-2.044-2.072-3.317c-0.222-1.009-0.485-3.354-0.396-4.298
		c1.513,0.301,1.123,2.181,2.601,2.511c0.437,0.098,0.972-1.181,1.48-1.304c0.483-0.117,1.734,0.221,2.294,0.241
		c-0.123-0.48,0.173-1.199,0.05-1.679c1.67-0.408,1.469,0.938,2.557,1.681c0.766,0.522,1.422,0.604,2.119,1.031
		c1.251,0.766,2.773,2.053,3.618,3.188c1.307,1.754,2,4.156,0.23,6.03c-0.621,0.658-4.16,2.793-5.049,3.038"/>
	<path fill="#FFF5DC" d="M51.75,45.625c-0.405-0.098-0.997-0.009-1.406,0.039c-0.1,1.356-0.79,2.686,0.448,3.723
		c-0.423-0.018-1.464,0.401-2.01,0.333c-0.125,0.407-0.126,1.229-0.007,1.631c1.321,0.054,3.302-0.554,3.323,1.231
		c0.97,0.242,1.366,0.929,1.257,1.968c1.092-0.322,1.045-3.508,1.47-4.619c0.553-1.443,2.675-4.92-0.576-5.056"/>
	<path fill="#FFF5DC" d="M55.25,49.125c-0.629,0.574,0.712,1.456,0.944,2.688c0.312,1.656-0.669,2.44-0.5,3.951
		c0.118,1.057,1.922,5.204,3.511,5.399c-0.014,3.185,1.738,2.839,2.854,5.126c0.813,1.667,1.111,5.518,0.952,7.509
		c-1.11-2.354-2.863-2.915-3.873-5.38c-0.701-1.711-0.968-4.19-1.87-5.998c-0.977-1.96-2.901-3.279-3.081-5.612
		c-0.148-1.925,1.211-4.828-0.938-5.933"/>
</g>
</svg>
