<?xml version="1.0" encoding="utf-8"?>
<!-- Generator: Adobe Illustrator 16.0.0, SVG Export Plug-In . SVG Version: 6.00 Build 0)  -->
<!DOCTYPE svg PUBLIC "-//W3C//DTD SVG 1.1//EN" "http://www.w3.org/Graphics/SVG/1.1/DTD/svg11.dtd">
<svg version="1.1" id="Layer_1" xmlns="http://www.w3.org/2000/svg" xmlns:xlink="http://www.w3.org/1999/xlink" x="0px" y="0px"
	 width="200px" height="200px" viewBox="0 0 200 200" enable-background="new 0 0 200 200" xml:space="preserve">
<g>
	<g>
		<g>
			<path fill="none" stroke="#000000" stroke-miterlimit="10" d="M80.998,112.787C73.992,122.9,57.254,95.63,54.189,90.945
				c-6.035-9.227-28.317-31.05-38.191-13.158"/>
			<path fill="none" stroke="#000000" stroke-miterlimit="10" d="M85.071,127.837c1.865-6.123,15.947-10.34,24.525-9.024
				c7.637,1.172,19.674,8.764,27.672,4.024"/>
		</g>
		<g>
			<path fill="#50B461" stroke="#000000" stroke-miterlimit="10" d="M138.191,131.829c-0.023,3.319-2.541,7.627-3.39,11.625
				c-0.946,4.473-0.61,9.481-0.61,14.264c0,10.207,0.08,21.492,6.662,29.082c-0.271-0.768-0.025-2.35-0.604-3.401
				c1.711,3.117,5.981-12.969,6.103-13.556c0.75-3.7,1.059-8.608,1.389-12.039c0.461-4.811,0.361-9.692-1.203-14.309
				c-0.768-2.259-2.793-4.519-3.285-6.756c-0.471-2.142,1.539-3.361,0.367-5.759c-1.057-2.164-4.035-4.336-6.363-3.465
				c0.293,2.053,0.182,4.273-1.064,4.312"/>
			<path fill="#50B461" stroke="#000000" stroke-miterlimit="10" d="M135.586,122.204c3.582,3.487,0.201,7.528-1.998,10.301
				c1.953,0.578,3.908,0.058,5.551-1.153c-0.049,0.912,0.408,1.553,0.461,2.188c0.139-0.881,0.463-1.445,0.709-2.271
				c0.541,0.527,2.228,1.369,2.73,2.019c-0.039-0.065-0.594-1.67-0.789-2.146c1.492,0.465,2.812,0.189,4.211,0.474
				C143.758,129.544,138.57,122.604,135.586,122.204"/>
		</g>
	</g>
	<g>
		<path fill="#50B461" stroke="#000000" stroke-miterlimit="10" d="M20.144,92.697c-0.037,5.312-4.065,12.203-5.422,18.6
			c-1.517,7.159-0.978,15.172-0.978,22.823c0,16.331,0.126,34.386,10.657,46.53c-0.431-1.229-0.039-3.76-0.964-5.444
			c2.739,4.987,9.57-20.75,9.761-21.688c1.203-5.92,1.695-13.773,2.223-19.263c0.737-7.692,0.581-15.509-1.926-22.892
			c-1.225-3.614-4.465-7.228-5.254-10.809c-0.754-3.426,2.461-5.38,0.586-9.216c-1.691-3.463-6.457-6.937-10.18-5.542
			c0.467,3.282,0.29,6.839-1.703,6.898"/>
		<path fill="#50B461" stroke="#000000" stroke-miterlimit="10" d="M15.976,77.297c5.729,5.581,0.323,12.049-3.199,16.484
			c3.129,0.925,6.254,0.088,8.882-1.847c-0.077,1.458,0.653,2.482,0.739,3.5c0.222-1.409,0.738-2.312,1.134-3.632
			c0.866,0.846,3.562,2.192,4.367,3.229c-0.061-0.104-0.95-2.672-1.261-3.428c2.388,0.74,4.5,0.301,6.737,0.753
			C29.05,89.042,20.75,77.939,15.976,77.297"/>
	</g>
</g>
</svg>
