<?xml version="1.0" encoding="utf-8"?>
<!-- Generator: Adobe Illustrator 16.0.0, SVG Export Plug-In . SVG Version: 6.00 Build 0)  -->
<!DOCTYPE svg PUBLIC "-//W3C//DTD SVG 1.1//EN" "http://www.w3.org/Graphics/SVG/1.1/DTD/svg11.dtd">
<svg version="1.1" id="Layer_1" xmlns="http://www.w3.org/2000/svg" xmlns:xlink="http://www.w3.org/1999/xlink" x="0px" y="0px"
	 width="200px" height="200px" viewBox="0 0 200 200" enable-background="new 0 0 200 200" xml:space="preserve">
<g>
	<g>
		<path fill="none" stroke="#000000" stroke-miterlimit="10" d="M81.66,112.883c-7.006,10.115-23.744-17.156-26.809-21.842
			c-6.035-9.225-28.318-31.049-38.191-13.156"/>
		<path fill="none" stroke="#000000" stroke-miterlimit="10" d="M60.217,98.91c-5.809-5.158-17.631-2.084-19.332,5.586"/>
	</g>
	<g>
		<g>
			<path fill="#50B461" stroke="#000000" stroke-miterlimit="10" d="M42.865,111.827c-0.023,3.32-2.541,7.627-3.389,11.625
				c-0.949,4.475-0.611,9.482-0.611,14.265c0,10.207,0.078,21.492,6.66,29.082c-0.269-0.768-0.023-2.35-0.602-3.402
				c1.711,3.117,5.981-12.97,6.1-13.555c0.752-3.701,1.061-8.61,1.389-12.04c0.462-4.809,0.363-9.693-1.202-14.308
				c-0.767-2.259-2.792-4.517-3.284-6.755c-0.471-2.141,1.537-3.362,0.365-5.76c-1.057-2.164-4.035-4.335-6.361-3.464
				c0.291,2.052,0.182,4.274-1.064,4.312"/>
			<path fill="#50B461" stroke="#000000" stroke-miterlimit="10" d="M40.26,102.202c3.58,3.488,0.201,7.53-2,10.303
				c1.955,0.578,3.908,0.055,5.551-1.154c-0.047,0.911,0.408,1.552,0.463,2.188c0.139-0.881,0.461-1.445,0.709-2.27
				c0.541,0.528,2.227,1.37,2.729,2.018c-0.037-0.064-0.594-1.67-0.787-2.143c1.492,0.463,2.812,0.188,4.211,0.471
				C48.432,109.543,43.244,102.604,40.26,102.202"/>
		</g>
	</g>
	<g>
		<path fill="#50B461" stroke="#000000" stroke-miterlimit="10" d="M19.736,92.862c-0.037,5.312-4.066,12.203-5.422,18.6
			c-1.518,7.159-0.979,15.172-0.979,22.823c0,16.331,0.127,34.386,10.658,46.53c-0.432-1.229-0.039-3.76-0.965-5.444
			c2.74,4.987,9.571-20.75,9.761-21.688c1.203-5.92,1.695-13.774,2.223-19.263c0.738-7.693,0.582-15.509-1.926-22.892
			c-1.225-3.614-4.465-7.227-5.254-10.808c-0.754-3.426,2.461-5.38,0.586-9.216c-1.691-3.463-6.456-6.937-10.179-5.542
			c0.467,3.282,0.289,6.839-1.703,6.898"/>
		<path fill="#50B461" stroke="#000000" stroke-miterlimit="10" d="M15.568,77.462c5.729,5.581,0.322,12.049-3.199,16.484
			c3.129,0.925,6.254,0.088,8.881-1.847c-0.076,1.458,0.654,2.482,0.74,3.5c0.221-1.409,0.738-2.312,1.133-3.632
			c0.867,0.846,3.563,2.192,4.368,3.229c-0.061-0.104-0.951-2.672-1.261-3.428c2.388,0.74,4.499,0.301,6.737,0.753
			C28.642,89.207,20.342,78.104,15.568,77.462"/>
	</g>
</g>
</svg>
