<?xml version="1.0" encoding="utf-8"?>
<!-- Generator: Adobe Illustrator 16.0.0, SVG Export Plug-In . SVG Version: 6.00 Build 0)  -->
<!DOCTYPE svg PUBLIC "-//W3C//DTD SVG 1.1//EN" "http://www.w3.org/Graphics/SVG/1.1/DTD/svg11.dtd">
<svg version="1.1" id="Layer_1" xmlns="http://www.w3.org/2000/svg" xmlns:xlink="http://www.w3.org/1999/xlink" x="0px" y="0px"
	 width="200px" height="200px" viewBox="0 0 200 200" enable-background="new 0 0 200 200" xml:space="preserve">
<g>
	<g>
		<g>
			<path fill="#FFFFFF" stroke="#000000" stroke-miterlimit="10" d="M74.673,98.59c-2.391,2.188-9.23,1.367-12.874-0.98
				c-5.297-3.413-0.331-7.733,2.725-10.864c4.093-4.191,6.702-3.53,11.8-1.893c3.347,1.073,1.035,1.902,4.74,0.528
				c3.93-1.461,5.653-3.748,9.524-0.363c1.258,1.106,1.604,2.355,2.686,3.529c2.235,2.426,5.172,3.974,3.535,7.46
				c-0.937,1.997-5.854,4.896-7.721,4.885c-4.079-0.023-4.593-4.065-9.415-3.202"/>
			<path fill="none" stroke="#50B461" stroke-miterlimit="10" d="M74.097,96.078c0.707-3.104-7.241-2.42-9.206-4.666"/>
			<path fill="none" stroke="#50B461" stroke-miterlimit="10" d="M83.108,94.414c3.333,0.839,7.585-1.296,10.267,0.2"/>
			<path fill="none" stroke="#50B461" stroke-miterlimit="10" d="M74.354,94.739c0.516-2.185-3.453-4.467-4-6.601"/>
			<path fill="none" stroke="#50B461" stroke-miterlimit="10" d="M82.43,92.951c2.956,0.613,2.79-2.725,5.51-2.391"/>
			<path fill="none" stroke="#50B461" stroke-miterlimit="10" d="M81.176,91.939c0.7,0.671,0.403-3.357,2.2-3.6"/>
			<path fill="#FFFFFF" stroke="#000000" stroke-miterlimit="10" d="M76.575,90.939c0,0.897,0.277,2.295,0.021,3.145
				c-0.279,0.92-1.173,1.555-1.514,2.451c-0.681,1.791-0.335,3.886,0.818,5.184c-2.048-1.521-2.219-8.893,0.875-9.779"/>
			<path fill="#FFFFFF" stroke="#000000" stroke-miterlimit="10" d="M79.366,90.34c-1.833,1.945-0.548,5.781-0.031,8.087
				c0.381,1.698,0.111,2.499-0.082,4.202c-0.289,2.549,0.337,2.564,1.988,2.486c0.567-1.37,1.16-2.62,1.598-4.037
				c0.387-1.25,0.675-3.134,1.773-3.619c0.131-0.986-1.789-3.973-2.204-4.874c-0.6-1.302-2.898-3.526-3.627-1.446"/>
		</g>
		<g>
			<path fill="#F48CA8" d="M74.673,98.59c-2.391,2.188-9.23,1.367-12.874-0.98c-5.297-3.413-0.331-7.733,2.725-10.864
				c4.093-4.191,6.702-3.53,11.8-1.893c3.347,1.073,1.035,1.902,4.74,0.528c3.93-1.461,5.653-3.748,9.524-0.363
				c1.258,1.106,1.604,2.355,2.686,3.529c2.235,2.426,5.172,3.974,3.535,7.46c-0.937,1.997-5.854,4.896-7.721,4.885
				c-4.079-0.023-4.593-4.065-9.415-3.202"/>
			<path fill="#F48CA8" d="M74.097,96.078c0.707-3.104-7.241-2.42-9.206-4.666"/>
			<path fill="#F48CA8" d="M83.108,94.414c3.333,0.839,7.585-1.296,10.267,0.2"/>
			<path fill="#F48CA8" d="M74.354,94.739c0.516-2.185-3.453-4.467-4-6.601"/>
			<path fill="#F48CA8" d="M82.43,92.951c2.956,0.613,2.79-2.725,5.51-2.391"/>
			<path fill="#F48CA8" d="M81.176,91.939c0.7,0.671,0.403-3.357,2.2-3.6"/>
			<path fill="#F48CA8" d="M76.575,90.939c0,0.897,0.277,2.295,0.021,3.145c-0.279,0.92-1.173,1.555-1.514,2.451
				c-0.681,1.791-0.335,3.886,0.818,5.184c-2.048-1.521-2.219-8.893,0.875-9.779"/>
			<path fill="#F48CA8" d="M79.366,90.34c-1.833,1.945-0.548,5.781-0.031,8.087c0.381,1.698,0.111,2.499-0.082,4.202
				c-0.289,2.549,0.337,2.564,1.988,2.486c0.567-1.37,1.16-2.62,1.598-4.037c0.387-1.25,0.675-3.134,1.773-3.619
				c0.131-0.986-1.789-3.973-2.204-4.874c-0.6-1.302-2.898-3.526-3.627-1.446"/>
		</g>
		<g>
			<path fill="none" stroke="#000000" d="M74.673,98.59c-2.391,2.188-9.23,1.367-12.874-0.98c-5.297-3.413-0.331-7.733,2.725-10.864
				c4.093-4.191,6.702-3.53,11.8-1.893c3.347,1.073,1.035,1.902,4.74,0.528c3.93-1.461,5.653-3.748,9.524-0.363
				c1.258,1.106,1.604,2.355,2.686,3.529c2.235,2.426,5.172,3.974,3.535,7.46c-0.937,1.997-5.854,4.896-7.721,4.885
				c-4.079-0.023-4.593-4.065-9.415-3.202"/>
			<path fill="none" stroke="#000000" d="M74.097,96.078c0.707-3.104-7.241-2.42-9.206-4.666"/>
			<path fill="none" stroke="#000000" d="M83.108,94.414c3.333,0.839,7.585-1.296,10.267,0.2"/>
			<path fill="none" stroke="#000000" d="M74.354,94.739c0.516-2.185-3.453-4.467-4-6.601"/>
			<path fill="none" stroke="#000000" d="M82.43,92.951c2.956,0.613,2.79-2.725,5.51-2.391"/>
			<path fill="none" stroke="#000000" d="M81.176,91.939c0.7,0.671,0.403-3.357,2.2-3.6"/>
			<path fill="none" stroke="#000000" d="M76.575,90.939c0,0.897,0.277,2.295,0.021,3.145c-0.279,0.92-1.173,1.555-1.514,2.451
				c-0.681,1.791-0.335,3.886,0.818,5.184c-2.048-1.521-2.219-8.893,0.875-9.779"/>
			<path fill="none" stroke="#000000" d="M79.366,90.34c-1.833,1.945-0.548,5.781-0.031,8.087c0.381,1.698,0.111,2.499-0.082,4.202
				c-0.289,2.549,0.337,2.564,1.988,2.486c0.567-1.37,1.16-2.62,1.598-4.037c0.387-1.25,0.675-3.134,1.773-3.619
				c0.131-0.986-1.789-3.973-2.204-4.874c-0.6-1.302-2.898-3.526-3.627-1.446"/>
		</g>
	</g>
	<path fill="#50B461" stroke="#000000" stroke-miterlimit="10" d="M81.547,124.623c-1.37-7.391,6.777-10.572,11.318-14.447
		c4.988-4.256,6.959-13.693,15.644-12.889c-2.899,10.237-15.698,15.09-24.462,19.336"/>
	<g>
		<g>
			<path fill="#FFFFFF" stroke="#000000" stroke-miterlimit="10" d="M103.796,107.13c-2.866,1.511-9.276-1.012-12.208-4.204
				c-4.262-4.643,1.635-7.566,5.383-9.822c5.02-3.021,7.377-1.721,11.895,1.152c2.968,1.885,0.521,2.103,4.453,1.709
				c4.172-0.418,6.418-2.195,9.308,2.058c0.937,1.389,0.955,2.685,1.705,4.093c1.549,2.912,3.998,5.153,1.534,8.113
				c-1.412,1.693-6.903,3.254-8.705,2.773c-3.941-1.055-3.415-5.096-8.299-5.479"/>
			<path fill="none" stroke="#50B461" stroke-miterlimit="10" d="M103.873,104.554c1.469-2.823-6.395-4.173-7.727-6.843"/>
			<path fill="none" stroke="#50B461" stroke-miterlimit="10" d="M113.013,105.223c3.012,1.654,7.666,0.664,9.882,2.789"/>
			<path fill="none" stroke="#50B461" stroke-miterlimit="10" d="M104.461,103.324c1.051-1.984-2.211-5.195-2.201-7.398"/>
			<path fill="none" stroke="#50B461" stroke-miterlimit="10" d="M112.727,103.635c2.704,1.341,3.389-1.93,5.936-0.92"/>
			<path fill="none" stroke="#50B461" stroke-miterlimit="10" d="M111.77,102.34c0.507,0.826,1.238-3.147,3.037-2.928"/>
			<path fill="#FFFFFF" stroke="#000000" stroke-miterlimit="10" d="M107.57,100.209c-0.227,0.868-0.312,2.291-0.775,3.047
				c-0.503,0.82-1.528,1.209-2.084,1.988c-1.111,1.561-1.307,3.676-0.52,5.223c-1.597-1.99,0.103-9.164,3.32-9.24"/>
			<path fill="#FFFFFF" stroke="#000000" stroke-miterlimit="10" d="M110.423,100.334c-2.267,1.419-1.993,5.455-2.075,7.816
				c-0.062,1.739-0.525,2.445-1.143,4.045c-0.924,2.393-0.322,2.566,1.296,2.908c0.896-1.182,1.784-2.242,2.565-3.502
				c0.69-1.111,1.446-2.861,2.632-3.053c0.375-0.922-0.728-4.297-0.9-5.273c-0.251-1.411-1.912-4.145-3.144-2.315"/>
		</g>
		<g>
			<path fill="#F48CA8" d="M103.796,107.13c-2.866,1.511-9.276-1.012-12.208-4.204c-4.262-4.643,1.635-7.566,5.383-9.822
				c5.02-3.021,7.377-1.721,11.895,1.152c2.968,1.885,0.521,2.103,4.453,1.709c4.172-0.418,6.418-2.195,9.308,2.058
				c0.937,1.389,0.955,2.685,1.705,4.093c1.549,2.912,3.998,5.153,1.534,8.113c-1.412,1.693-6.903,3.254-8.705,2.773
				c-3.941-1.055-3.415-5.096-8.299-5.479"/>
			<path fill="#F48CA8" d="M103.873,104.554c1.469-2.823-6.395-4.173-7.727-6.843"/>
			<path fill="#F48CA8" d="M113.013,105.223c3.012,1.654,7.666,0.664,9.882,2.789"/>
			<path fill="#F48CA8" d="M104.461,103.324c1.051-1.984-2.211-5.195-2.201-7.398"/>
			<path fill="#F48CA8" d="M112.727,103.635c2.704,1.341,3.389-1.93,5.936-0.92"/>
			<path fill="#F48CA8" d="M111.77,102.34c0.507,0.826,1.238-3.147,3.037-2.928"/>
			<path fill="#F48CA8" d="M107.57,100.209c-0.227,0.868-0.312,2.291-0.775,3.047c-0.503,0.82-1.528,1.209-2.084,1.988
				c-1.111,1.561-1.307,3.676-0.52,5.223c-1.597-1.99,0.103-9.164,3.32-9.24"/>
			<path fill="#F48CA8" d="M110.423,100.334c-2.267,1.419-1.993,5.455-2.075,7.816c-0.062,1.739-0.525,2.445-1.143,4.045
				c-0.924,2.393-0.322,2.566,1.296,2.908c0.896-1.182,1.784-2.242,2.565-3.502c0.69-1.111,1.446-2.861,2.632-3.053
				c0.375-0.922-0.728-4.297-0.9-5.273c-0.251-1.411-1.912-4.145-3.144-2.315"/>
		</g>
		<g>
			<path fill="none" stroke="#000000" d="M103.796,107.13c-2.866,1.511-9.276-1.012-12.208-4.204
				c-4.262-4.643,1.635-7.566,5.383-9.822c5.02-3.021,7.377-1.721,11.895,1.152c2.968,1.885,0.521,2.103,4.453,1.709
				c4.172-0.418,6.418-2.195,9.308,2.058c0.937,1.389,0.955,2.685,1.705,4.093c1.549,2.912,3.998,5.153,1.534,8.113
				c-1.412,1.693-6.903,3.254-8.705,2.773c-3.941-1.055-3.415-5.096-8.299-5.479"/>
			<path fill="none" stroke="#000000" d="M103.873,104.554c1.469-2.823-6.395-4.173-7.727-6.843"/>
			<path fill="none" stroke="#000000" d="M113.013,105.223c3.012,1.654,7.666,0.664,9.882,2.789"/>
			<path fill="none" stroke="#000000" d="M104.461,103.324c1.051-1.984-2.211-5.195-2.201-7.398"/>
			<path fill="none" stroke="#000000" d="M112.727,103.635c2.704,1.341,3.389-1.93,5.936-0.92"/>
			<path fill="none" stroke="#000000" d="M111.77,102.34c0.507,0.826,1.238-3.147,3.037-2.928"/>
			<path fill="none" stroke="#000000" d="M107.57,100.209c-0.227,0.868-0.312,2.291-0.775,3.047
				c-0.503,0.82-1.528,1.209-2.084,1.988c-1.111,1.561-1.307,3.676-0.52,5.223c-1.597-1.99,0.103-9.164,3.32-9.24"/>
			<path fill="none" stroke="#000000" d="M110.423,100.334c-2.267,1.419-1.993,5.455-2.075,7.816
				c-0.062,1.739-0.525,2.445-1.143,4.045c-0.924,2.393-0.322,2.566,1.296,2.908c0.896-1.182,1.784-2.242,2.565-3.502
				c0.69-1.111,1.446-2.861,2.632-3.053c0.375-0.922-0.728-4.297-0.9-5.273c-0.251-1.411-1.912-4.145-3.144-2.315"/>
		</g>
	</g>
</g>
</svg>
