<?xml version="1.0" encoding="utf-8"?>
<!-- Generator: Adobe Illustrator 16.0.0, SVG Export Plug-In . SVG Version: 6.00 Build 0)  -->
<!DOCTYPE svg PUBLIC "-//W3C//DTD SVG 1.1//EN" "http://www.w3.org/Graphics/SVG/1.1/DTD/svg11.dtd">
<svg version="1.1" id="Layer_1" xmlns="http://www.w3.org/2000/svg" xmlns:xlink="http://www.w3.org/1999/xlink" x="0px" y="0px"
	 width="200px" height="200px" viewBox="0 0 200 200" enable-background="new 0 0 200 200" xml:space="preserve">
<g>
	<g>
		<g>
			<path fill="none" stroke="#000000" stroke-miterlimit="10" d="M79.033,79.19C72.028,89.304,55.29,62.032,52.226,57.348
				c-6.035-9.227-28.317-31.05-38.191-13.158"/>
			<path fill="none" stroke="#000000" stroke-miterlimit="10" d="M87.533,132.689c1.288-6.121,11-10.338,16.917-9.023
				c5.267,1.172,13.567,8.764,19.083,4.023"/>
		</g>
		<g>
			<path fill="#50B461" stroke="#000000" stroke-miterlimit="10" d="M125.531,136.549c-0.023,3.32-2.541,7.627-3.389,11.625
				c-0.948,4.475-0.611,9.482-0.611,14.264c0,10.207,0.079,21.492,6.661,29.082c-0.269-0.768-0.024-2.35-0.603-3.402
				c1.711,3.117,5.982-12.969,6.101-13.555c0.751-3.701,1.06-8.609,1.389-12.039c0.462-4.809,0.362-9.693-1.202-14.309
				c-0.768-2.258-2.793-4.516-3.285-6.754c-0.471-2.141,1.538-3.363,0.366-5.76c-1.057-2.164-4.035-4.336-6.362-3.465
				c0.292,2.053,0.182,4.275-1.064,4.312"/>
			<path fill="#50B461" stroke="#000000" stroke-miterlimit="10" d="M122.926,126.924c3.581,3.488,0.201,7.529-1.999,10.303
				c1.954,0.578,3.908,0.055,5.551-1.154c-0.048,0.91,0.408,1.551,0.462,2.188c0.139-0.881,0.462-1.445,0.709-2.27
				c0.541,0.527,2.227,1.369,2.729,2.018c-0.038-0.064-0.594-1.67-0.788-2.143c1.492,0.463,2.812,0.188,4.211,0.471
				C131.098,134.264,125.91,127.324,122.926,126.924"/>
		</g>
	</g>
	<g>
		<path fill="#50B461" stroke="#000000" stroke-miterlimit="10" d="M17.944,59.48c-0.037,5.312-4.064,12.203-5.422,18.6
			c-1.516,7.159-0.977,15.172-0.977,22.823c0,16.332,0.125,34.387,10.656,46.531c-0.43-1.229-0.039-3.76-0.963-5.445
			c2.738,4.988,9.57-20.75,9.76-21.688c1.203-5.92,1.695-13.773,2.223-19.262c0.738-7.694,0.582-15.509-1.926-22.892
			c-1.225-3.614-4.465-7.227-5.254-10.808c-0.754-3.426,2.461-5.38,0.586-9.216c-1.691-3.463-6.457-6.937-10.18-5.542
			c0.467,3.282,0.291,6.839-1.703,6.898"/>
		<path fill="#50B461" stroke="#000000" stroke-miterlimit="10" d="M13.776,44.08c5.73,5.581,0.324,12.049-3.199,16.484
			c3.129,0.925,6.254,0.088,8.883-1.847c-0.078,1.458,0.652,2.482,0.738,3.5c0.223-1.409,0.738-2.312,1.135-3.632
			c0.865,0.846,3.562,2.192,4.367,3.229c-0.061-0.104-0.951-2.672-1.262-3.428c2.389,0.74,4.5,0.301,6.738,0.753
			C26.851,55.825,18.552,44.722,13.776,44.08"/>
	</g>
</g>
</svg>
