<?xml version="1.0" encoding="utf-8"?>
<!-- Generator: Adobe Illustrator 16.0.0, SVG Export Plug-In . SVG Version: 6.00 Build 0)  -->
<!DOCTYPE svg PUBLIC "-//W3C//DTD SVG 1.1//EN" "http://www.w3.org/Graphics/SVG/1.1/DTD/svg11.dtd">
<svg version="1.1" id="Layer_1" xmlns="http://www.w3.org/2000/svg" xmlns:xlink="http://www.w3.org/1999/xlink" x="0px" y="0px"
	 width="200px" height="200px" viewBox="0 0 200 200" enable-background="new 0 0 200 200" xml:space="preserve">
<g>
	<g>
		<path fill="none" stroke="#000000" stroke-miterlimit="10" d="M79.277,78.94C72.271,89.055,55.534,61.782,52.47,57.098
			c-6.035-9.227-28.318-31.05-38.192-13.158"/>
		<g>
			<path fill="#50B461" stroke="#000000" stroke-miterlimit="10" d="M124.858,136.799c-0.023,3.32-2.541,7.627-3.389,11.625
				c-0.947,4.475-0.611,9.482-0.611,14.264c0,10.207,0.08,21.494,6.662,29.082c-0.27-0.77-0.023-2.355-0.606-3.408
				c0.735,1.33,6.366-4.742,3.565-8.395c-0.147-0.191,5.747-9.664-1.367-8.143c3.602-0.631,5.27-8.674,1.27-9.041
				c3.186-0.877,4.752-7.566,0.252-9.883c1.318-1.256,3.002-3.5,2.732-5.506c-0.404-3.008-3.109-2.594-3.557-5.098
				c-0.436-2.422,2.055-3.117,0.477-6.346c-1.057-2.164-4.035-4.334-6.363-3.463c0.293,2.051,0.182,4.273-1.064,4.311"/>
			<path fill="#50B461" stroke="#000000" stroke-miterlimit="10" d="M122.253,127.174c3.582,3.488,0.202,7.531-1.998,10.303
				c1.954,0.578,3.908,0.055,5.551-1.154c-0.048,0.912,0.408,1.553,0.462,2.188c0.138-0.881,0.462-1.445,0.708-2.27
				c0.542,0.529,2.227,1.371,2.73,2.018c-0.039-0.064-0.594-1.67-0.788-2.143c1.492,0.463,2.812,0.189,4.21,0.471
				C130.425,134.516,125.238,127.576,122.253,127.174"/>
		</g>
		<path fill="none" stroke="#000000" stroke-miterlimit="10" d="M87.777,132.439c1.288-6.121,10.999-10.338,16.917-9.023
			c5.266,1.172,13.567,8.764,19.083,4.023"/>
	</g>
	<g>
		<path fill="#50B461" stroke="#000000" stroke-miterlimit="10" d="M17.836,59.211c-0.037,5.314-4.066,12.203-5.422,18.602
			c-1.518,7.156-0.979,15.172-0.979,22.822c0,16.332,0.127,34.387,10.658,46.527c-0.432-1.23-0.037-3.768-0.969-5.453
			c1.176,2.129,10.184-7.586,5.703-13.43c-0.234-0.307,9.197-15.463-2.188-13.025c5.764-1.01,8.432-13.879,2.033-14.467
			c5.096-1.402,7.602-12.109,0.402-15.813c2.109-2.011,4.803-5.599,4.373-8.808c-0.648-4.814-4.977-4.15-5.693-8.158
			c-0.695-3.877,3.287-4.986,0.764-10.153c-1.691-3.461-6.457-6.936-10.18-5.542c0.467,3.283,0.289,6.838-1.703,6.898"/>
		<path fill="#50B461" stroke="#000000" stroke-miterlimit="10" d="M13.668,43.813c5.729,5.581,0.322,12.047-3.199,16.481
			c3.129,0.925,6.254,0.089,8.881-1.847c-0.074,1.459,0.654,2.484,0.74,3.501c0.219-1.407,0.738-2.311,1.133-3.63
			c0.867,0.844,3.562,2.191,4.367,3.229c-0.061-0.106-0.949-2.672-1.258-3.432c2.387,0.744,4.496,0.304,6.734,0.757
			C26.74,55.557,18.443,44.454,13.668,43.813"/>
	</g>
</g>
</svg>
