<?xml version="1.0" encoding="utf-8"?>
<!-- Generator: Adobe Illustrator 16.0.0, SVG Export Plug-In . SVG Version: 6.00 Build 0)  -->
<!DOCTYPE svg PUBLIC "-//W3C//DTD SVG 1.1//EN" "http://www.w3.org/Graphics/SVG/1.1/DTD/svg11.dtd">
<svg version="1.1" id="Layer_1" xmlns="http://www.w3.org/2000/svg" xmlns:xlink="http://www.w3.org/1999/xlink" x="0px" y="0px"
	 width="200px" height="200px" viewBox="0 0 200 200" enable-background="new 0 0 200 200" xml:space="preserve">
<g>
	<g>
		<path fill="#D69FC8" stroke="#000000" stroke-miterlimit="10" d="M73.842,59.885c-2.392,2.188-9.231,1.367-12.875-0.98
			c-5.297-3.411-0.331-7.732,2.725-10.863c4.092-4.191,6.701-3.529,11.799-1.893c3.348,1.074,1.037,1.902,4.74,0.527
			c3.932-1.459,5.654-3.748,9.525-0.363c1.258,1.107,1.604,2.355,2.686,3.529c2.235,2.426,5.172,3.975,3.535,7.461
			c-0.937,1.996-5.854,4.895-7.721,4.885c-4.08-0.023-4.592-4.066-9.414-3.203"/>
		<path fill="none" stroke="#50B461" stroke-miterlimit="10" d="M73.266,57.373c0.707-3.103-7.242-2.419-9.207-4.666"/>
		<path fill="none" stroke="#50B461" stroke-miterlimit="10" d="M82.277,55.71c3.332,0.839,7.584-1.295,10.266,0.2"/>
		<path fill="none" stroke="#50B461" stroke-miterlimit="10" d="M73.522,56.035c0.516-2.185-3.452-4.467-4-6.6"/>
		<path fill="none" stroke="#50B461" stroke-miterlimit="10" d="M81.598,54.247c2.956,0.613,2.791-2.726,5.51-2.392"/>
		<path fill="none" stroke="#50B461" stroke-miterlimit="10" d="M80.344,53.234c0.7,0.673,0.403-3.357,2.199-3.6"/>
		<path fill="#D69FC8" stroke="#000000" stroke-miterlimit="10" d="M75.744,52.234c0,0.898,0.277,2.296,0.02,3.146
			c-0.279,0.919-1.174,1.554-1.514,2.45c-0.682,1.791-0.334,3.887,0.818,5.184c-2.049-1.521-2.219-8.892,0.875-9.779"/>
		<path fill="#D69FC8" stroke="#000000" stroke-miterlimit="10" d="M78.535,51.635c-1.834,1.945-0.549,5.781-0.032,8.088
			c0.38,1.697,0.111,2.498-0.081,4.201c-0.289,2.549,0.336,2.564,1.988,2.486c0.566-1.369,1.158-2.619,1.597-4.037
			c0.387-1.25,0.675-3.133,1.774-3.619c0.129-0.986-1.79-3.972-2.205-4.872c-0.6-1.304-2.898-3.528-3.627-1.446"/>
	</g>
	<g>
		<path fill="#F48CA8" d="M73.842,59.885c-2.392,2.188-9.231,1.367-12.875-0.98c-5.297-3.411-0.331-7.732,2.725-10.863
			c4.092-4.191,6.701-3.529,11.799-1.893c3.348,1.074,1.037,1.902,4.74,0.527c3.932-1.459,5.654-3.748,9.525-0.363
			c1.258,1.107,1.604,2.355,2.686,3.529c2.235,2.426,5.172,3.975,3.535,7.461c-0.937,1.996-5.854,4.895-7.721,4.885
			c-4.08-0.023-4.592-4.066-9.414-3.203"/>
		<path fill="#F48CA8" d="M73.266,57.373c0.707-3.103-7.242-2.419-9.207-4.666"/>
		<path fill="#F48CA8" d="M82.277,55.71c3.332,0.839,7.584-1.295,10.266,0.2"/>
		<path fill="#F48CA8" d="M73.522,56.035c0.516-2.185-3.452-4.467-4-6.6"/>
		<path fill="#F48CA8" d="M81.598,54.247c2.956,0.613,2.791-2.726,5.51-2.392"/>
		<path fill="#F48CA8" d="M80.344,53.234c0.7,0.673,0.403-3.357,2.199-3.6"/>
		<path fill="#F48CA8" d="M75.744,52.234c0,0.898,0.277,2.296,0.02,3.146c-0.279,0.919-1.174,1.554-1.514,2.45
			c-0.682,1.791-0.334,3.887,0.818,5.184c-2.049-1.521-2.219-8.892,0.875-9.779"/>
		<path fill="#F48CA8" d="M78.535,51.635c-1.834,1.945-0.549,5.781-0.032,8.088c0.38,1.697,0.111,2.498-0.081,4.201
			c-0.289,2.549,0.336,2.564,1.988,2.486c0.566-1.369,1.158-2.619,1.597-4.037c0.387-1.25,0.675-3.133,1.774-3.619
			c0.129-0.986-1.79-3.972-2.205-4.872c-0.6-1.304-2.898-3.528-3.627-1.446"/>
	</g>
	<g>
		<path fill="none" stroke="#000000" d="M73.842,59.885c-2.392,2.188-9.231,1.367-12.875-0.98
			c-5.297-3.411-0.331-7.732,2.725-10.863c4.092-4.191,6.701-3.529,11.799-1.893c3.348,1.074,1.037,1.902,4.74,0.527
			c3.932-1.459,5.654-3.748,9.525-0.363c1.258,1.107,1.604,2.355,2.686,3.529c2.235,2.426,5.172,3.975,3.535,7.461
			c-0.937,1.996-5.854,4.895-7.721,4.885c-4.08-0.023-4.592-4.066-9.414-3.203"/>
		<path fill="none" stroke="#000000" d="M73.266,57.373c0.707-3.103-7.242-2.419-9.207-4.666"/>
		<path fill="none" stroke="#000000" d="M82.277,55.71c3.332,0.839,7.584-1.295,10.266,0.2"/>
		<path fill="none" stroke="#000000" d="M73.522,56.035c0.516-2.185-3.452-4.467-4-6.6"/>
		<path fill="none" stroke="#000000" d="M81.598,54.247c2.956,0.613,2.791-2.726,5.51-2.392"/>
		<path fill="none" stroke="#000000" d="M80.344,53.234c0.7,0.673,0.403-3.357,2.199-3.6"/>
		<path fill="none" stroke="#000000" d="M75.744,52.234c0,0.898,0.277,2.296,0.02,3.146c-0.279,0.919-1.174,1.554-1.514,2.45
			c-0.682,1.791-0.334,3.887,0.818,5.184c-2.049-1.521-2.219-8.892,0.875-9.779"/>
		<path fill="none" stroke="#000000" d="M78.535,51.635c-1.834,1.945-0.549,5.781-0.032,8.088c0.38,1.697,0.111,2.498-0.081,4.201
			c-0.289,2.549,0.336,2.564,1.988,2.486c0.566-1.369,1.158-2.619,1.597-4.037c0.387-1.25,0.675-3.133,1.774-3.619
			c0.129-0.986-1.79-3.972-2.205-4.872c-0.6-1.304-2.898-3.528-3.627-1.446"/>
	</g>
</g>
<path fill="#50B461" stroke="#000000" stroke-miterlimit="10" d="M80.715,85.918c-1.37-7.391,6.777-10.572,11.318-14.447
	c4.988-4.256,6.959-13.693,15.644-12.889c-2.899,10.236-15.698,15.09-24.462,19.336"/>
<g>
	<g>
		<path fill="#D69FC8" stroke="#000000" stroke-miterlimit="10" d="M102.964,68.424c-2.866,1.512-9.276-1.012-12.208-4.203
			c-4.262-4.643,1.635-7.566,5.383-9.821c5.02-3.021,7.377-1.722,11.895,1.152c2.968,1.884,0.521,2.103,4.453,1.708
			c4.172-0.418,6.418-2.194,9.308,2.059c0.937,1.389,0.955,2.684,1.705,4.092c1.549,2.912,3.998,5.152,1.534,8.113
			c-1.412,1.693-6.903,3.254-8.705,2.773c-3.941-1.055-3.415-5.096-8.299-5.48"/>
		<path fill="none" stroke="#50B461" stroke-miterlimit="10" d="M103.041,65.848c1.469-2.822-6.395-4.172-7.727-6.842"/>
		<path fill="none" stroke="#50B461" stroke-miterlimit="10" d="M112.181,66.518c3.012,1.654,7.666,0.664,9.882,2.789"/>
		<path fill="none" stroke="#50B461" stroke-miterlimit="10" d="M103.629,64.619c1.051-1.984-2.211-5.195-2.201-7.398"/>
		<path fill="none" stroke="#50B461" stroke-miterlimit="10" d="M111.895,64.93c2.704,1.34,3.389-1.93,5.936-0.92"/>
		<path fill="none" stroke="#50B461" stroke-miterlimit="10" d="M110.938,63.635c0.507,0.826,1.238-3.146,3.037-2.928"/>
		<path fill="#D69FC8" stroke="#000000" stroke-miterlimit="10" d="M106.738,61.504c-0.227,0.869-0.312,2.291-0.775,3.047
			c-0.503,0.82-1.528,1.209-2.084,1.988c-1.111,1.561-1.307,3.676-0.52,5.223c-1.597-1.99,0.103-9.164,3.32-9.24"/>
		<path fill="#D69FC8" stroke="#000000" stroke-miterlimit="10" d="M109.591,61.629c-2.267,1.42-1.993,5.455-2.075,7.816
			c-0.062,1.738-0.525,2.445-1.143,4.045c-0.924,2.393-0.322,2.566,1.296,2.908c0.896-1.182,1.784-2.242,2.565-3.502
			c0.69-1.111,1.446-2.861,2.632-3.053c0.375-0.922-0.728-4.297-0.9-5.273c-0.251-1.41-1.912-4.145-3.144-2.314"/>
	</g>
	<g>
		<path fill="#F48CA8" d="M102.964,68.424c-2.866,1.512-9.276-1.012-12.208-4.203c-4.262-4.643,1.635-7.566,5.383-9.821
			c5.02-3.021,7.377-1.722,11.895,1.152c2.968,1.884,0.521,2.103,4.453,1.708c4.172-0.418,6.418-2.194,9.308,2.059
			c0.937,1.389,0.955,2.684,1.705,4.092c1.549,2.912,3.998,5.152,1.534,8.113c-1.412,1.693-6.903,3.254-8.705,2.773
			c-3.941-1.055-3.415-5.096-8.299-5.48"/>
		<path fill="#F48CA8" d="M103.041,65.848c1.469-2.822-6.395-4.172-7.727-6.842"/>
		<path fill="#F48CA8" d="M112.181,66.518c3.012,1.654,7.666,0.664,9.882,2.789"/>
		<path fill="#F48CA8" d="M103.629,64.619c1.051-1.984-2.211-5.195-2.201-7.398"/>
		<path fill="#F48CA8" d="M111.895,64.93c2.704,1.34,3.389-1.93,5.936-0.92"/>
		<path fill="#F48CA8" d="M110.938,63.635c0.507,0.826,1.238-3.146,3.037-2.928"/>
		<path fill="#F48CA8" d="M106.738,61.504c-0.227,0.869-0.312,2.291-0.775,3.047c-0.503,0.82-1.528,1.209-2.084,1.988
			c-1.111,1.561-1.307,3.676-0.52,5.223c-1.597-1.99,0.103-9.164,3.32-9.24"/>
		<path fill="#F48CA8" d="M109.591,61.629c-2.267,1.42-1.993,5.455-2.075,7.816c-0.062,1.738-0.525,2.445-1.143,4.045
			c-0.924,2.393-0.322,2.566,1.296,2.908c0.896-1.182,1.784-2.242,2.565-3.502c0.69-1.111,1.446-2.861,2.632-3.053
			c0.375-0.922-0.728-4.297-0.9-5.273c-0.251-1.41-1.912-4.145-3.144-2.314"/>
	</g>
	<g>
		<path fill="none" stroke="#000000" d="M102.964,68.424c-2.866,1.512-9.276-1.012-12.208-4.203
			c-4.262-4.643,1.635-7.566,5.383-9.821c5.02-3.021,7.377-1.722,11.895,1.152c2.968,1.884,0.521,2.103,4.453,1.708
			c4.172-0.418,6.418-2.194,9.308,2.059c0.937,1.389,0.955,2.684,1.705,4.092c1.549,2.912,3.998,5.152,1.534,8.113
			c-1.412,1.693-6.903,3.254-8.705,2.773c-3.941-1.055-3.415-5.096-8.299-5.48"/>
		<path fill="none" stroke="#000000" d="M103.041,65.848c1.469-2.822-6.395-4.172-7.727-6.842"/>
		<path fill="none" stroke="#000000" d="M112.181,66.518c3.012,1.654,7.666,0.664,9.882,2.789"/>
		<path fill="none" stroke="#000000" d="M103.629,64.619c1.051-1.984-2.211-5.195-2.201-7.398"/>
		<path fill="none" stroke="#000000" d="M111.895,64.93c2.704,1.34,3.389-1.93,5.936-0.92"/>
		<path fill="none" stroke="#000000" d="M110.938,63.635c0.507,0.826,1.238-3.146,3.037-2.928"/>
		<path fill="none" stroke="#000000" d="M106.738,61.504c-0.227,0.869-0.312,2.291-0.775,3.047c-0.503,0.82-1.528,1.209-2.084,1.988
			c-1.111,1.561-1.307,3.676-0.52,5.223c-1.597-1.99,0.103-9.164,3.32-9.24"/>
		<path fill="none" stroke="#000000" d="M109.591,61.629c-2.267,1.42-1.993,5.455-2.075,7.816c-0.062,1.738-0.525,2.445-1.143,4.045
			c-0.924,2.393-0.322,2.566,1.296,2.908c0.896-1.182,1.784-2.242,2.565-3.502c0.69-1.111,1.446-2.861,2.632-3.053
			c0.375-0.922-0.728-4.297-0.9-5.273c-0.251-1.41-1.912-4.145-3.144-2.314"/>
	</g>
</g>
</svg>
